<svg xmlns="http://www.w3.org/2000/svg" viewBox="0 0 1610.4 129.16"><defs><style>.cls-1{fill:#801d1c;}</style></defs><title>Asset 4</title><g id="Layer_2" data-name="Layer 2"><g id="Layer_1-2" data-name="Layer 1"><path class="cls-1" d="M44.56,83.41C51.43,73.88,63,62.23,73.93,55.81a73.45,73.45,0,0,1,9.72-5c-3.41,1.37,1.47-.37,2.29-.63,1.85-.6,3.71-1.14,5.6-1.59,1.5-.36,3-.66,4.52-.94-4.31.79.57,0,1.71-.1a69.9,69.9,0,0,1,12.7.25c-4.15-.49-.27,0,.49.21,1.84.49,3.71.86,5.55,1.4a49.9,49.9,0,0,1,5.39,1.84c-3.63-1.55-.07.09.49.44,1.59,1,3.27,1.88,4.85,2.9,3.34,2.14-3.45-3.66,1.46,1.12,1.1,1.07,2.21,2.08,3.27,3.2.2.22,4.66,5.64,2.39,2.68,5.39,7,10.07,14.67,16.27,21.05a66.33,66.33,0,0,0,25.78,16.1c34.45,12.31,69.06-8,97.61-25C280.3,70,289,65.07,294.15,63c-2.64,1.06,5.1-1.71,4.27-1.45,1.59-.51,3.21-1,4.83-1.37-.6.15,7.27-1.28,4.21-.92-1.41.17,4.54-.11,5.64-.08,1.34,0,6.38.61.76-.23,1.27.19,2.53.43,3.78.71a86.22,86.22,0,0,1,9.16,2.76c-5-1.71,2.4,1.19,4,2,3.2,1.69,6.3,3.56,9.33,5.52,22.69,14.68,42,34.28,68.64,42,29.84,8.7,58.55-2.28,83.36-18.74,11.11-7.36,21.75-15.46,33.35-22.06,2.61-1.48,5.3-2.78,7.95-4.18,3.89-2.07.61-.33-.28,0,1.82-.72,3.65-1.4,5.51-2,2.48-.79,5-1.3,7.53-2,5.91-1.53-4.73-.19,1.43-.18,2,0,3.95-.16,5.93-.09,1.3,0,2.6.22,3.9.27-4.91-.21-1.9-.33-.58,0,3.15.8,6.28,1.47,9.36,2.51,1.24.42,2.45.89,3.68,1.33-5.32-1.9.72.34,1.56.74,3,1.44,6,3,8.9,4.66,11.37,6.41,22,14,33.1,20.87,25.62,15.86,55.6,26.66,85.53,16.39,14-4.81,26.33-12.41,38.34-20.92,5.52-3.91,11-7.92,16.63-11.66,2.63-1.74,5.3-3.44,8-5q2.25-1.3,4.54-2.51c1-.52,7.69-3.37,2.69-1.46a71.37,71.37,0,0,1,7.73-2.52s6.51-1.47,2.85-.76,3.62-.19,3.39-.18c1.64,0,3.23,0,4.86.09,7.26.18-2.13-.63,2,.29,1.95.43,3.88.9,5.79,1.48.73.22,6.95,2.54,3.34,1,14.93,6.32,25.7,15.59,36.7,24.42,28.31,22.75,65.74,47.11,103.66,33.28,15.59-5.69,27.77-16.19,38.33-28.74,4.4-5.22,8.6-10.62,13.22-15.64,2.17-2.36,4.47-4.53,6.79-6.74,4.73-4.52-2.26,1.34,1-.84a55.63,55.63,0,0,1,5.6-3.39c3.61-1.86-4.39.83,2.44-.94,1.61-.42,3.18-.86,4.82-1.23,7.31-1.65-2-.07,2.32-.22,2.1-.07,4.19-.11,6.29,0,1.68.08,3.42.17,5.07.42-3.62-.54,1.72.52,2.54.71a94,94,0,0,1,13.69,4.23c-1-.39-3-1.47,1.51.67,1.95.93,3.87,1.88,5.77,2.9,3.5,1.86,6.91,3.87,10.29,6,7.54,4.64,14.82,9.69,22.2,14.58,30,19.86,63,32.82,99.56,28.93a144.76,144.76,0,0,0,51.75-15.21c15.63-8.06,28.31-20.26,41.51-31.63,4.94-4.26,8.86-7.58,16.57-11.3-2.64,1.27,3-1.11,4.11-1.44,1.73-.51,3.5-.83,5.24-1.29,4.76-1.27-4.63,0,.66-.13,2.34-.07,4.66-.25,7-.19,1.76,0,3.5.25,5.26.33-.72,0-5.41-1-1.07-.14a119.53,119.53,0,0,1,17.55,4.68c1.47.52,10.22,4.15,4.86,1.78,2.36,1,4.71,2.11,7,3.22,6,2.84,11.81,5.9,17.62,9,11.71,6.28,23.28,12.84,35.33,18.48,25.25,11.81,52.44,20.06,80.35,13.12,17.84-4.43,32.46-15.28,46.44-26.68,2.53-2.06,5-4.17,7.56-6.24,1.58-1.29,3.15-2.59,4.76-3.85,3.58-2.8-4.41,2.94,2-1.44a98.17,98.17,0,0,1,8.46-5.41c1.54-.84,3.11-1.65,4.73-2.35-4.63,2,1.82-.43,2.3-.57,1.35-.41,2.73-.77,4.11-1.09.1,0,6.63-.79,3-.61s3,0,3,0c1.34,0,2.68.08,4,.21-5.67-.56-.55-.3.4.45l.93.27q-4-1.94-.42-.14c2.29,2.8.95.44-.09-.46a34.2,34.2,0,0,1,4.07,4.34c8.12,10,25.24,8.44,33.68,0,9.87-9.87,8.14-23.66,0-33.68-23-28.36-67.14-20.45-93.25-1.41-14.57,10.62-24.12,20.91-37.81,28.56,0,0-7,3.44-3,1.72-1.3.55-2.7,1-4,1.42a74.79,74.79,0,0,1-8.87,2.07c5.71-1-1.17-.09-3.42-.08-1.79,0-11.65-1.1-5.19,0a111,111,0,0,1-15.94-3.86c-3-1-5.91-2.1-8.85-3.22-5.73-2.17,2.86,1.58-.5-.21-1.71-.91-3.56-1.6-5.31-2.43-11.73-5.54-23-11.93-34.44-18.06-24-12.84-50.06-25.78-77.92-25.4a86.94,86.94,0,0,0-44.91,13.22c-8.06,5.07-15.44,11.31-22.58,17.58-2.54,2.23-5,4.5-7.58,6.73-1.9,1.67-3.84,3.3-5.76,4.94-3.24,2.77.64-.15-3.1,2.39-14.18,9.67-23.54,13.5-40.53,16.34-4.49.75,5.52-.29-2.19.25-1.63.11-3.26.26-4.9.34a115.74,115.74,0,0,1-12.27,0c-1.64-.09-3.26-.24-4.89-.39-7.5-.68,4,1.16-3.38-.55-4-.93-8-1.74-11.89-3-2-.61-3.89-1.28-5.8-2-4.31-1.6,5,2.54-2.58-1.08-4-1.9-7.86-3.94-11.68-6.14-7.65-4.42-15-9.38-22.32-14.29C1083.44,41,1068,31.52,1050.54,25.47c-17.7-6.12-38.25-8.08-56.37-2.54-17,5.2-30.48,16.43-41.77,29.81-4.17,4.94-8.15,10-12.47,14.85-2.37,2.64-4.9,5-7.42,7.52-3.09,3-.9.89,0,.24a55,55,0,0,1-6.17,3.89c-3.23,1.8,5.25-1.19-1.84.79-1.58.44-3.14.9-4.75,1.23,3.91-.79-1,0-2.1,0a45.43,45.43,0,0,1-6.07-.23c3.68.42-.39-.15-1-.31-2.43-.68-4.86-1.22-7.27-2-4.78-1.58-3.87-1.28-8.57-3.72-17.14-8.88-26.8-18.42-42-30C839,34.47,824.16,25,807.31,20.17c-34.17-9.78-63.47,5.6-90.53,24.9-5.21,3.71-10.41,7.44-15.82,10.85-2.95,1.86-6,3.63-9,5.24-1.22.64-2.47,1.22-3.7,1.83q-3.76,1.7,0,0-1.43.55-2.89,1c-3,.79-5.87,1.69-8.92,2.22,4.94-.86.62-.1-.73-.13-1.62,0-3.24.06-4.87,0-1.28-.06-2.56-.18-3.83-.31,5.51.58,1.13.13-.27-.27-3.4-1-6.76-1.93-10.12-3-5.73-1.89,2.54,1.65-.62-.23-1.39-.83-3-1.41-4.46-2.14-2.69-1.36-5.33-2.82-7.93-4.33-6.23-3.6-12.25-7.54-18.27-11.47C614.24,37,603.14,29.86,591,24.52c-14.3-6.27-29.57-10.47-45.34-9.08-16.15,1.42-31.1,7-45.08,15.12-11.26,6.51-21.65,14.38-32.48,21.56a171.35,171.35,0,0,1-17.28,10.29c-1.17.59-2.36,1.14-3.54,1.71-5.27,2.58,2.8-.29-.59.2s-6.91,2-10.15,2.93c-5.48,1.49,3,.47-.34.12a48.6,48.6,0,0,0-4.88.22c-1.32,0-2.63-.12-3.94-.14-5.61-.07,2.48,1.29-.37,0-2.44-1.15-5.69-1.33-8.3-2.21-.1,0-5.88-2.35-2.51-.89,3,1.28-3.54-1.83-4.13-2.15-11.24-6-21.29-14-31.44-21.61-26.08-19.63-54-33.88-87.57-26.87-17.06,3.56-32.8,12.75-47.55,21.68-7.15,4.33-14.24,8.84-21.77,12.5a84.59,84.59,0,0,1-19.31,6.25c-4.78,1-1.7.24-.62.15-2.29.19-4.59.07-6.86.24-.8.06-4.79-.37-.37.24a36.74,36.74,0,0,1-5.4-1.24c-1.25-.37-5-2.52-1.51-.5a43.58,43.58,0,0,1-3.88-2.35c3,2.18-.82-1-1.48-1.68s-5.25-6.33-3.15-3.53C170.46,31.2,160.84,17.68,144.4,9.55,110.71-7.09,70.63-1.12,40.76,20.76,26,31.6,14.14,44.52,3.44,59.37-4.08,69.81,1.63,85.9,12,92c12,7,25,1.92,32.58-8.54Z"/></g></g></svg>