<svg id="bdf54a66-a55a-4b05-844f-78d400bf3fe5" data-name="Layer 1" xmlns="http://www.w3.org/2000/svg" viewBox="0 0 1798 1094.58"><defs><style>.\35 38f7b3b-07d6-419e-adb3-97e8d61bd308{fill:#3b1f80;}.ad9c3e97-b955-4a5f-833d-d3ee945531a6{fill:#88142a;}.ecbbccae-cbe9-4a15-9bb4-1f542496589c{font-size:187px;fill:#fff;font-family:Futura-CondensedMedium, Futura;}.d8bf7598-92f5-4a95-a1df-8c803f1da7fb{letter-spacing:-0.01em;}.\30 b5e117a-7c26-4f3c-b32d-43bfec22eaa2,.\35 5e739a1-6e11-426a-86af-be28ec92767b,.\38 cdfb446-923c-44b2-8dab-d0eb734084c0{font-family:Futura-CondensedExtraBold, Futura;font-weight:700;}.\35 5e739a1-6e11-426a-86af-be28ec92767b{letter-spacing:-0.01em;}.\38 cdfb446-923c-44b2-8dab-d0eb734084c0{letter-spacing:0.01em;}.\31 54966fd-e984-4259-b8c0-ea00f5de1333{letter-spacing:-0.02em;}.\34 b13cd98-362f-43ba-acc4-05f31c96c041{letter-spacing:0em;}.\35 b3fdb16-b044-45d8-bc1f-85f89b1f0bc0{letter-spacing:0.01em;}.\35 0d6ad9d-3d1f-40d8-a9e8-6fe86e663bd6{letter-spacing:0em;}.fe45aade-70e7-4d2c-a60b-8a21bd392b35{letter-spacing:0em;}</style></defs><title>logo</title><rect class="538f7b3b-07d6-419e-adb3-97e8d61bd308" width="1798" height="1080"/><path class="ad9c3e97-b955-4a5f-833d-d3ee945531a6" d="M233.65,401.29s80.69-109.24,225.92-90.62C532.5.5,927.54,23.93,967.26,329.29c73.24-246.79,419.56-271.85,495.28,11.17,36-3.72,149,0,203.58,79.44C1443.93,755.06,704.1,972.29,233.65,401.29Z" transform="translate(-62)"/><path class="ad9c3e97-b955-4a5f-833d-d3ee945531a6" d="M62.34.34s29.79,192.4,141.51,351.29c60.82-53.38,172.54-84.41,244.54-65.79C459.5,92.5,794.5-118.5,990.85,220.06,1128.5,18.5,1435.5,32.5,1543.23,303.23c67.27-5.73,137.79,28.55,166.34,62.07C1774.5,262.5,1824.5,178.5,1859.77.34,1859.77,1.59,62.34.34,62.34.34Z" transform="translate(-62)"/><text class="ecbbccae-cbe9-4a15-9bb4-1f542496589c" transform="translate(30 1034.13)">Mün<tspan class="d8bf7598-92f5-4a95-a1df-8c803f1da7fb" x="258.31" y="0">c</tspan><tspan x="310.63" y="0">hner</tspan><tspan class="55e739a1-6e11-426a-86af-be28ec92767b" x="580.91" y="0">T</tspan><tspan class="8cdfb446-923c-44b2-8dab-d0eb734084c0" x="660.34" y="0">r</tspan><tspan class="0b5e117a-7c26-4f3c-b32d-43bfec22eaa2" x="734.76" y="0">ainer</tspan><tspan class="154966fd-e984-4259-b8c0-ea00f5de1333" x="1171.67" y="0">W</tspan><tspan x="1279.33" y="0">e</tspan><tspan class="4b13cd98-362f-43ba-acc4-05f31c96c041" x="1348.26" y="0">r</tspan><tspan class="5b3fdb16-b044-45d8-bc1f-85f89b1f0bc0" x="1398.57" y="0">k</tspan><tspan class="50d6ad9d-3d1f-40d8-a9e8-6fe86e663bd6" x="1473.17" y="0">s</tspan><tspan class="fe45aade-70e7-4d2c-a60b-8a21bd392b35" x="1529.05" y="0">t</tspan><tspan x="1570.78" y="0">att</tspan></text></svg>