<svg xmlns="http://www.w3.org/2000/svg" viewBox="0 0 2073.7 1547.69"><defs><style>.cls-1{fill:none;stroke:#8e1d22;stroke-miterlimit:10;stroke-width:6px;}.cls-2,.cls-8{font-size:35px;}.cls-2{fill:#8e1d22;font-family:Roboto-Medium, Roboto;}.cls-3{letter-spacing:-0.01em;}.cls-4{letter-spacing:0.02em;}.cls-5{letter-spacing:0.01em;}.cls-6{letter-spacing:-0.02em;}.cls-7{letter-spacing:-0.01em;}.cls-8{font-family:Roboto-Regular, Roboto;}.cls-9{letter-spacing:-0.01em;}.cls-10{letter-spacing:-0.01em;}.cls-11{letter-spacing:-0.02em;}</style></defs><title>MindMap</title><g id="Layer_2" data-name="Layer 2"><g id="Layer_1-2" data-name="Layer 1"><path class="cls-1" d="M1211.83,786.37a83.17,83.17,0,0,0-75.48-82.79c0-.55.09-1.1.09-1.66a81.79,81.79,0,0,0-136.77-60.65A100.43,100.43,0,0,0,844.82,641a87.59,87.59,0,0,0-143.29,82A86.94,86.94,0,1,0,785,875.44a90,90,0,0,0,102.83,26,74.34,74.34,0,0,0,126.44-2.79,73.49,73.49,0,0,0,124.43-29.75A83.14,83.14,0,0,0,1211.83,786.37Z"/><text class="cls-2" transform="translate(711 728.53)">Ihr <tspan class="cls-3" x="50.33" y="0">P</tspan><tspan x="72.51" y="0">a</tspan><tspan class="cls-4" x="91.45" y="0">r</tspan><tspan x="104.61" y="0">tner für e</tspan><tspan class="cls-5" x="247.17" y="0">r</tspan><tspan x="259.82" y="0">folgreiche </tspan><tspan x="0" y="52">Lernp</tspan><tspan class="cls-6" x="89.19" y="52">r</tspan><tspan class="cls-7" x="100.88" y="52">o</tspan><tspan x="120.53" y="52">zesse und wirksame </tspan><tspan x="0" y="104">persönliche Entwicklung</tspan></text><text class="cls-8" transform="translate(961.06 572) rotate(-40.5)"><tspan class="cls-9">K</tspan><tspan x="21.48" y="0">onfliktfreier </tspan><tspan class="cls-9" x="209.15" y="0">K</tspan><tspan x="230.63" y="0">ommunizieren</tspan></text><text class="cls-8" transform="matrix(0.93, -0.37, 0.37, 0.93, 1131.84, 578.67)">bewusster wahrnehmen</text><text class="cls-8" transform="translate(1223.82 690.76) rotate(-7.88)">persönliche Stärken &amp; Vebesserungsmöglichkeiten <tspan x="289.38" y="52">kennenlernen</tspan></text><text class="cls-8" transform="translate(1233.64 818.9) rotate(10.72)"><tspan class="cls-9">K</tspan><tspan x="21.48" y="0">onflikte aushalten können</tspan></text><text class="cls-8" transform="translate(1143.28 908.05) rotate(43.81)">Umgang mit Schicksalsschlägen</text><text class="cls-8" transform="matrix(0.16, -0.99, 0.99, 0.16, 831.26, 1306.67)">Beziehungen <tspan class="cls-10" x="208.75" y="0">K</tspan><tspan x="230.24" y="0">onstruktiv</tspan><tspan x="120.13" y="52">gestalten</tspan></text><text class="cls-8" transform="translate(332.28 1267.91) rotate(-43.96)">neue berufliche Weichen stellen</text><text class="cls-8" transform="matrix(0.94, -0.33, 0.33, 0.94, 193.61, 944.2)">persönliche &amp; berufliche Ziele <tspan x="82.01" y="52">in Einklang bringen</tspan></text><text class="cls-8" transform="matrix(0.99, 0.14, -0.14, 0.99, 279.56, 595.84)">Klarheit bei wichtigen<tspan x="41.86" y="52">Entscheidungen</tspan></text><text class="cls-8" transform="translate(448.44 293.12) rotate(36.74)">Selbstve<tspan class="cls-4" x="132.41" y="0">r</tspan><tspan x="145.11" y="0">t</tspan><tspan class="cls-11" x="156.54" y="0">r</tspan><tspan x="167.7" y="0">auen &amp; Gelassenheit</tspan><tspan x="179.37" y="52">steigern</tspan></text><path d="M948.86,601.6l287.87-242.79,80.73-68.09c1.48-1.25-.65-3.36-2.12-2.12L1027.46,531.4l-80.73,68.09c-1.48,1.25.65,3.36,2.12,2.12Z"/><path d="M1189.85,717l327.75-47.84,327.75-47.84L2029,594.48c1.9-.28,1.09-3.17-.8-2.89l-327.75,47.84-327.75,47.84L1189,714.08c-1.9.28-1.09,3.17.8,2.89Z"/><path d="M850.46,1301l46.73-288.83,13.24-81.82c.31-1.89-2.58-2.7-2.89-.8l-46.73,288.83-13.24,81.82c-.31,1.89,2.58,2.7,2.89.8Z"/><path d="M199.08,963.7,547.34,835.83l99.24-36.44c1.8-.66,1-3.56-.8-2.89L297.52,924.37l-99.24,36.44c-1.8.66-1,3.56.8,2.89Z"/><path d="M227.31,607.2l366.9,55,104.55,15.67c1.89.28,2.7-2.61.8-2.89l-366.9-55L228.11,604.31c-1.89-.28-2.7,2.61-.8,2.89Z"/><path d="M425,295.39,589.3,422.05,753.64,548.72l93.23,71.86c1.53,1.18,3-1.43,1.51-2.59L684,491.32,519.71,364.66,426.48,292.8c-1.53-1.18-3,1.43-1.51,2.59Z"/><path d="M321.79,1293l158.56-154.38L639.63,983.54l89.28-86.92c1.39-1.35-.74-3.47-2.12-2.12L568.22,1048.88,408.95,1203.95l-89.28,86.92c-1.39,1.35.74,3.47,2.12,2.12Z"/><path d="M1120.48,916.3l146.45,139.58,145.73,138.89,83,79.07c1.4,1.33,3.52-.79,2.12-2.12L1351.3,1132.14,1205.57,993.25l-83-79.07c-1.4-1.33-3.52.79-2.12,2.12Z"/><path d="M1209.73,824l198.67,38.24,197.69,38.05,112.55,21.66c1.89.36,2.69-2.53.8-2.89l-198.67-38.24-197.69-38.05-112.55-21.66c-1.89-.36-2.69,2.53-.8,2.89Z"/><path d="M1081.62,618.49l318.74-126.4,90.14-35.75c1.77-.7,1-3.61-.8-2.89L1171,579.85l-90.14,35.75c-1.77.7-1,3.61.8,2.89Z"/></g></g></svg>