<svg xmlns="http://www.w3.org/2000/svg" viewBox="0 0 2370.07 1621.29"><defs><style>.cls-1{fill:none;stroke:#8e1d22;stroke-miterlimit:10;stroke-width:6px;}.cls-2,.cls-8{font-size:35px;font-family:Roboto-Medium, Roboto;}.cls-2{fill:#8e1d22;}.cls-3{letter-spacing:-0.01em;}.cls-4{letter-spacing:0.02em;}.cls-5{letter-spacing:0.01em;}.cls-6{letter-spacing:-0.02em;}.cls-7{letter-spacing:-0.01em;}.cls-13,.cls-8{fill:#46257f;}.cls-9{letter-spacing:-0.01em;}.cls-10{letter-spacing:-0.01em;}.cls-11{letter-spacing:0em;}.cls-12{letter-spacing:-0.01em;}</style></defs><title>MindMap</title><g id="Layer_2" data-name="Layer 2"><g id="Layer_1-2" data-name="Layer 1"><path class="cls-1" d="M1347.83,786.37a83.17,83.17,0,0,0-75.48-82.79c0-.55.09-1.1.09-1.66a81.79,81.79,0,0,0-136.77-60.65A100.43,100.43,0,0,0,980.82,641a87.59,87.59,0,0,0-143.29,82A86.94,86.94,0,1,0,921,875.44a90,90,0,0,0,102.83,26,74.34,74.34,0,0,0,126.44-2.79,73.49,73.49,0,0,0,124.43-29.75A83.14,83.14,0,0,0,1347.83,786.37Z"/><text class="cls-2" transform="translate(847 728.53)">Ihr <tspan class="cls-3" x="50.33" y="0">P</tspan><tspan x="72.51" y="0">a</tspan><tspan class="cls-4" x="91.45" y="0">r</tspan><tspan x="104.61" y="0">tner für e</tspan><tspan class="cls-5" x="247.17" y="0">r</tspan><tspan x="259.82" y="0">folgreiche </tspan><tspan x="0" y="52">Lernp</tspan><tspan class="cls-6" x="89.19" y="52">r</tspan><tspan class="cls-7" x="100.88" y="52">o</tspan><tspan x="120.53" y="52">zesse und wirksame </tspan><tspan x="0" y="104">persönliche Entwicklung</tspan></text><text class="cls-8" transform="matrix(0.76, -0.65, 0.65, 0.76, 1097.1, 571.97)"><tspan class="cls-9">K</tspan><tspan x="21.6" y="0">onfliktfreier kommunizieren</tspan></text><text class="cls-8" transform="translate(1256.6 615.11) rotate(-25.15)">Bewusster wahrnehmen</text><text class="cls-8" transform="translate(1337.45 707.24) rotate(-8.32)">Persönliche Stärken &amp; Vebesserungsmöglichkeiten kennenlernen</text><text class="cls-8" transform="translate(1369.64 818.91) rotate(10.72)"><tspan class="cls-9">K</tspan><tspan x="21.6" y="0">onflikte aushalten können</tspan></text><text class="cls-8" transform="translate(1279.36 908.05) rotate(43.81)">Umgang mit Schicksalsschlägen</text><text class="cls-8" transform="translate(946.7 1459.47) rotate(-80.95)">Beziehungen <tspan class="cls-10" x="211.33" y="0">K</tspan><tspan class="cls-11" x="232.93" y="0">onstruktiv gestalten</tspan></text><text class="cls-8" transform="translate(468.28 1267.93) rotate(-43.96)">Neue berufliche Weichen stellen</text><text class="cls-8" transform="translate(44.5 1044.97) rotate(-19.49)">Persönliche &amp; berufliche Ziele in Einklang bringen</text><text class="cls-8" transform="matrix(0.99, 0.14, -0.14, 0.99, 244.76, 572.87)">Klarheit bei wichtigen Entscheidungen</text><text class="cls-8" transform="translate(505.17 240.38) rotate(36.74)">Selbstve<tspan class="cls-4" x="134.34" y="0">r</tspan><tspan x="147.5" y="0">t</tspan><tspan class="cls-12" x="159.14" y="0">r</tspan><tspan x="170.93" y="0">auen &amp; Gelassenheit steigern</tspan></text><path class="cls-13" d="M1085.92,602.66l287.87-242.79,80.73-68.09c3-2.49-1.31-6.72-4.24-4.24L1162.4,530.33l-80.73,68.09c-3,2.49,1.31,6.72,4.24,4.24Z"/><path class="cls-13" d="M1327.21,725l406.42-59.33,404.37-59,227.84-33.26c3.81-.56,2.19-6.34-1.6-5.79l-406.42,59.33-404.37,59L1325.61,719.2c-3.81.56-2.19,6.34,1.6,5.79Z"/><path class="cls-13" d="M958.35,1477.21l34.62-214,34.62-214L1047,929c.61-3.78-5.17-5.4-5.79-1.6l-34.62,214-34.62,214-19.46,120.29c-.61,3.78,5.17,5.4,5.79,1.6Z"/><path class="cls-13" d="M51.73,1069.33l285-104.64L621.73,860,783,800.83c3.59-1.32,2-7.12-1.6-5.79l-285,104.64-285,104.64L50.14,1063.54c-3.59,1.32-2,7.12,1.6,5.79Z"/><path class="cls-13" d="M238,596l233.63,30.59L704.22,657l131.66,17.24c3.82.5,3.78-5.51,0-6L602.25,637.69,369.62,607.23,238,590c-3.82-.5-3.78,5.51,0,6Z"/><path class="cls-13" d="M485.79,253.63,682.16,398.16,878.53,542.69l111.06,81.74c3.11,2.29,6.11-2.91,3-5.18L796.25,474.72,599.88,330.19,488.82,248.45c-3.11-2.29-6.11,2.91-3,5.18Z"/><path class="cls-13" d="M458.85,1294.05l158.56-154.38L776.69,984.6,866,897.68c2.77-2.7-1.47-6.94-4.24-4.24L703.16,1047.81,543.89,1202.89l-89.28,86.92c-2.77,2.7,1.47,6.94,4.24,4.24Z"/><path class="cls-13" d="M1255.42,917.36l146.45,139.58,145.73,138.89,83,79.07c2.8,2.66,7-1.57,4.24-4.24l-146.45-139.58L1342.63,992.19l-83-79.07c-2.8-2.66-7,1.57-4.24,4.24Z"/><path class="cls-13" d="M1345.33,825.43l345.54,66.51,98.16,18.9c3.77.73,5.39-5.06,1.6-5.79l-345.54-66.51-98.16-18.9c-3.77-.73-5.39,5.06-1.6,5.79Z"/><path class="cls-13" d="M1257.84,633,1531.9,505l77.53-36.2c3.5-1.63.45-6.81-3-5.18L1332.34,591.61l-77.53,36.2c-3.5,1.63-.45,6.81,3,5.18Z"/></g></g></svg>