<svg xmlns="http://www.w3.org/2000/svg" viewBox="0 0 656.48 292.72"><defs><style>.cls-1{fill:#533b90;}</style></defs><title>Asset 3</title><g id="Layer_2" data-name="Layer 2"><g id="Layer_1-2" data-name="Layer 1"><path class="cls-1" d="M611.46,94.11c-.57-.47-.41,0,1.07,1.35l1.29.76Z"/><path class="cls-1" d="M620.47,104.41c1.79,1.6,4,3.32,3.4,1.81-2-1.38-2.28-1.93-4.46-3.4-1.43-1.45-2.33-2.68-2-2.54-.58-.44-2.16-2.31-3.12-2.91a58.85,58.85,0,0,0,6.52,6.91C621.26,104.92,620.66,104.48,620.47,104.41Z"/><path class="cls-1" d="M566.41,245.15l1.3,0A3.63,3.63,0,0,0,566.41,245.15Z"/><path class="cls-1" d="M445.38,262.33c.92-.18,1.27-.54,1.28-.82C445.82,261.81,445.14,262.08,445.38,262.33Z"/><path class="cls-1" d="M424.19,261.09c.46.06.84.06,1.25.09C424.94,260.93,424.45,260.82,424.19,261.09Z"/><path class="cls-1" d="M566.41,245.15h-3.35C563.05,246,564.83,245.37,566.41,245.15Z"/><path class="cls-1" d="M639.24,124.73a10.22,10.22,0,0,0-1.25-1.35c.37.44.72.88,1.07,1.34A.74.74,0,0,1,639.24,124.73Z"/><path class="cls-1" d="M614.11,223.12l.8-.53a5.33,5.33,0,0,0,.15-1.17Z"/><path class="cls-1" d="M641.23,195.13c-.46.74.72,1.74,1.16,2.38a3.09,3.09,0,0,1,0-2.23A2,2,0,0,0,641.23,195.13Z"/><path class="cls-1" d="M641.14,134.51l-.65-1Z"/><path class="cls-1" d="M588.39,235.56a1.67,1.67,0,0,0-.62-.56A1.14,1.14,0,0,0,588.39,235.56Z"/><path class="cls-1" d="M437.9,31.26c0,.05,0,.11,0,.16C438.12,31.4,438.21,31.36,437.9,31.26Z"/><path class="cls-1" d="M482.89,49.68l-.64-.2c-.08,0-.17,0-.19.1Z"/><path class="cls-1" d="M385.81,261.31l.17,0C387,261,386.4,261.06,385.81,261.31Z"/><path class="cls-1" d="M42.94,233c1.45,1.33-.07.84-1.4.45s-2.42-.72-.16,1.23C41.12,234.1,46.84,235.86,42.94,233Z"/><path class="cls-1" d="M639.77,125.69c.33.47.67.94,1,1.44A12.16,12.16,0,0,0,639.77,125.69Z"/><path class="cls-1" d="M41.38,234.69h0l.48.39Z"/><path class="cls-1" d="M298.28,269.25a3,3,0,0,0,.93,1.07C299.17,270.06,299,269.75,298.28,269.25Z"/><path class="cls-1" d="M363.88,268.71l-1.65-.23A5.43,5.43,0,0,0,363.88,268.71Z"/><path class="cls-1" d="M264.39,273.64a3.64,3.64,0,0,0-2.38-.19,1.52,1.52,0,0,0,.36.29A1.92,1.92,0,0,1,264.39,273.64Z"/><path class="cls-1" d="M229,273.15a6.26,6.26,0,0,0,.63.49l1.12-.07Z"/><path class="cls-1" d="M331,9.16A6.06,6.06,0,0,1,332.45,11C332,9.65,337.33,9.89,331,9.16Z"/><path class="cls-1" d="M638.87,125a1.71,1.71,0,0,1,.9.7l-.72-1C638.89,124.7,638.78,124.74,638.87,125Z"/><path class="cls-1" d="M262.87,292.66l-5.74-.49A42.55,42.55,0,0,0,262.87,292.66Z"/><path class="cls-1" d="M75.69,33.76l1.09-.84A2.63,2.63,0,0,0,75.69,33.76Z"/><path class="cls-1" d="M240.09,291.88a8.88,8.88,0,0,0-3.18-1.76,2.29,2.29,0,0,0-.69.57Z"/><path class="cls-1" d="M332.46,11.07a0,0,0,0,1,0,0A0,0,0,0,0,332.46,11.07Z"/><path class="cls-1" d="M370.16,12.89c-5.36-1.09-2.82,1.59-4.14,2.6-6.48-.48-2.74-2.09-4.76-3.59-4.09-.12-7.43,1.41-10.4.88-.18-.41-.74-.63,0-1-4.47,1.2-12.6-1.83-17.82,0a1.6,1.6,0,0,1-.58-.69,4.68,4.68,0,0,1,.4,3.43c-2.42-.25-4.63,1-5.37-.69,1.47.22,1.66-.41,2.41-.83l-2.6.39c-2-2.6,3.53-.39,3.71-2.08-5,.07-11,1.49-14.67.39-.57-2.44,8.92.2,4.07-2.44l5.77,1.55c-4.11-4.13,3.54.68-.19-3.67-7.66-1.62-8.75.07-16.39-1.42-1.85,1.15.4,2-1.45,3.18-5.57.65-7.59-1.06-9.28-2.67s-3-3.1-7.17-1.83c-2.21,1.45-3.24,4.59-8.86,2.45L285,4.13c-7.48-.92-4.54,3.79-12.27,1.29,1.46-1,6-.54,4.84-1-5-2.66-3.7,1.38-7.61,1.12l-.67-2.65c-4,0-8.26.26-12.6.64s-8.79.78-13.24.93c.51-.79,2.06-1.58,0-2.46a105.69,105.69,0,0,1-17.59-.18c-3-.22-6-.51-8.88-.86l-8.53-1-4.08,2.5c-1,0-1.85-1-.82-1.5-4.3-.69-.15,1.52-2.15,2.56-2.4.29-3.26-1.2-1.76-2-1.85.61-4.09,1.22-6.54,1.86S188,4.67,185.34,5.14a73.63,73.63,0,0,1-7.86,1,31,31,0,0,1-6.93-.28L172,5c-3.12-.06-4.71,1.37-6.24,2.63a6.25,6.25,0,0,1-6,1.72l1-.58c-3.33.3-6.73.78-10.1,1.39l-10,2c-3.24.74-6.4,1.39-9.41,1.81a46.61,46.61,0,0,1-8.54.68c-.28.87-1.24,1.44-2.52,1.88s-2.87.82-4.42,1.2c-3.11.73-6,1.77-5.82,3.81-3.93.23-5.42.16-7.27.19s-4,.38-9.31,1.94a6.82,6.82,0,0,0-3,2.58,11.8,11.8,0,0,1-3.24,3.19l-.83-1.71c-1.21,1.33-2.43,2.58-3.59,3.92q-1.62-.42-3.25-.8c-.93.67-1.88,1.32-2.79,2,1.23-.56,2.9-.6,2.94,0a29.45,29.45,0,0,1-7.57,3.66c-2.45.87-4.45,1.3-4.72,1-1.68,1.29-3.29,2.7-4.9,4.06s-3.19,2.78-4.75,4.19c-.13-.68,1.44-2.12,2.57-3.45-4.52,5.34-1.94-.67-6,4.27.85-.24.18,1,.26,1.36-3,1.13-8.39,5.62-11.8,9.57l.07-1.41-2.59,2.47c-.86.85-1.66,1.78-2.5,2.68s-1.67,1.84-2.48,2.8L32.9,67c-1.62,2-3.07,4.12-4.61,6.21L26.1,76.47,25,78.09l-1,1.66c1.14-1.49,1.92-1.82,2.18-1.47s0,1.37-.74,2.68l-1.66.34c-.44,2.06,2.09-2.41.67,1.47-1.12,1.56-1.67,2-1.94,1.68a2.94,2.94,0,0,1,.28-2.32C22,83.54,21.39,85,20.7,86.42c-.43.06,0-1-.27-1.48-.18,1-1.47,2.64-2.62,4.46a27.32,27.32,0,0,0-1.63,2.74,7.31,7.31,0,0,0-.76,2.56l-.4.09a113.49,113.49,0,0,0-4.7,11.59c-1.13,3.34-2.13,6.46-3.32,10.49.71.4-.34,3.5-.39,6.07a121.37,121.37,0,0,0-4.91,19.68c-.37,5.18.43,1.59.56,4-.36.14-.78,2-1.08,3.42s-.47,2.26-.53.33c-.2,2.21-.37,4-.44,5.68S0,159.15,0,160.72a104.82,104.82,0,0,0,.5,12.18c.21-1.23.3-2.6.56-1.9.2,2-.06,4.63-.42,4.37l-.1-.53c.87,6.26,1.44,13.53,2.88,20.51.31,1.75.81,3.44,1.24,5.12s1.05,3.26,1.6,4.79,1.29,2.94,2,4.25a32.15,32.15,0,0,0,2.33,3.5c-.13-.15-.24-.31-.36-.47,1,1.47,2.1,2.93,3.22,4.33s2.28,2.77,3.55,4c3,3.9-2.35-1.9-.42,1.26,4.23,4.06,7.53,7.14,10.72,10A49.46,49.46,0,0,0,38,239.63c2.33,3.16,8,6.5,14.12,9.26s12.68,5.18,16.78,8l-.24-1c2.58.14,2.64,1.51,4.28,2.36,0-.7-2.26-1.67-.68-1.54q3.74,1.23,7.49,2.6c2.51.88,5,1.94,7.54,2.79,5.08,1.79,10.17,3.73,15.27,5.78,5.15,1.84,10.32,3.77,15.49,5.7,2.58,1,5.2,1.79,7.8,2.67s5.21,1.69,7.81,2.49c3.82,1.15,5.2,0,6.77-1s3.33-1.48,7.94.92l-3.16,1.62a102.56,102.56,0,0,1,12,1.32c4,.54,8,1.24,12,2l6,1.06q3,.42,6,.75a83.91,83.91,0,0,0,11.86.52c-1,.47-1.08,1.22-2.59,1a8.07,8.07,0,0,0,3.19,1.2,19.83,19.83,0,0,0,4,.2c2.66-.12,5-.74,5-1.5,2.4.41.45,1.44,1.87,2.37,3.21,1.45,8.43-1.57,10,.4.28.33-1,.56-1.58.66,2.21-.78,10,1,8.06-1.43a31,31,0,0,0,8.33.64c2.65,0,5.14-.16,7.44.64,3.11-2.44,9.95,1.69,11-1.94-.51,3.85,10.17,3.36,13.86,1.61-1.24,1.14,3.2,1.29,1.75,2.88a20.11,20.11,0,0,0,5.52-.53c1.4-.43,2.17-1.12,1.8-2.13,7.79,4.73,15.48-3.77,19.95,2.26,6.21-1.18,12.19-2.15,18-3.11s11.44-1.78,17-2.5c-.18,4.21-12.33.86-11.66,5.18a136.46,136.46,0,0,0,13.52-3.64,39.53,39.53,0,0,1,13.5-1.82c2.76.44-1.43,1.92-2.3,2.68a100.38,100.38,0,0,1,15.32-1.65c5-.28,9.78-.63,14.38-2.17,0,.4-1,.92-1.9,1.31,1.84-.27,4.35.32,4-1.63l-1.76.66c-3.17-2.61,6.86-6.51,7.06-8.06-2.67,5.9,9.36.66,5,8.21,1.19-.47,2.63-1.54,2.24-2.83,1.84.23,2.48,1,.78,2.61,6.53-1.63,4-3.52,10-4,.07,1-1.11,1.44-1.63,2.62,2.87-2.13,5.74-4.27,10.87-4-.25.61.41,1.3-1.1,1.43,8.67-1.11,14.3-6.42,24-5.63-2.36,4.44,3.38,1,4.27,4.52l5-1.65-2.24-1.5c4.49-.45,8.15-3.51,12.13-2.8L442,276.41l8.31-1.69-4.9-.76c4.31-2.37-1-4.42,5.05-4.15-1.16.51,4.47-.49,7,1.28,0,0,0,0,0,0,2.07-1.4,4.2-2.84,7.61-2.41,1,1-.2,3.94.45,4.61,1.81-3.19,10.36-2.21,12.71-5.66a2.82,2.82,0,0,0-.28,3l1.52-2.58c2.17.47,2.52.77,2.37,2.25,6.27-.47-2.56-4,5.07-3.23-.55.27-.23.58-1.39,1.1,7.54-.09,14.1-3.51,21-3.43,2.49,3-5.82,1.73-3.12,4.19,9.72-2.16,19.71-7.13,29.31-8.1l-1.83,0c.53-4.68,7.45.92,11.86-2.17-1.11.55-1.07,2.74-.84,2.18,6.64-.67,13.1-3.9,22.46-7.79l-.93,1.39c4-.08,10.09-2.29,14.28-3.17.89-1.4,3.23-2,1.37-3,7.08.76,12.84-2.32,18-5.67s9.89-6.87,16-8c-1.2.74-2.46,2.46-1.5,1.88,2.74-2,5.4-4.06,8-6.24-1.52-.82-1.6,0-4,.13a13.82,13.82,0,0,1,4.37-5c-3,3.41,1.47,2,3.53,1.47-.54-.17-.32-1-.74-1.26,2.86-.54,2.57-1.29,2.37-2.25a2.1,2.1,0,0,1,.19-1.62,6.77,6.77,0,0,1,2.74-2.11l.23.82c1.72-2.05,2.76-4.44,4.86-6.31,1,.14.67.79.16,1.52s-1.16,1.56-.74,2.12a19.7,19.7,0,0,0,3.07-5.26,14,14,0,0,1,1.43-2.51,6,6,0,0,1,2.07-1.85,21,21,0,0,1-1.47,2.56,22.44,22.44,0,0,0-1.57,2.52,11.92,11.92,0,0,0,3.73-2.21c.74-.69,1.25-1.39,2.23-2.54l-.21.22,1.19-1.29,1.14-1.34c.77-.89,1.49-1.83,2.2-2.77l-1.33,1.28c-.33-3.29.8-5.52,2-8.05s2.53-5.27,2.37-8.85c.06,3.45.2,3.85.63,3.47s.95-1.53,1.63-1c1-1.53,2.14-4.08,2.36-3.2a10.8,10.8,0,0,1,.8-4.61,10,10,0,0,0,.12-5.71c.54-.15.26-3.55,1.39-2.72-.08-2.21-.36-1.95-.56-1.2s-.58,2-.86,1.77c-.6-3.35-.16-7.16-.34-11.41a28.63,28.63,0,0,0-3.32-13,40.26,40.26,0,0,0-4.32-7.6c-1.31-1.9-2.63-3.69-4.5-6.78-.35-1.19.14-.89.73-.29a16.85,16.85,0,0,1,1.24,1.53,33.24,33.24,0,0,0-5.33-9.27c.61.51.4-.27,0-1.39-1.76-2.45-1.95-1.13-3.9-4.57a13.21,13.21,0,0,1,2.63,1.84c-2.28-2.76-4.78-5.26-7.22-8-.3-1,1.87,1.34,2.89,2.2-2.69-3.15-7.13-8-8.36-8.56q.8,1,1.56,2.11c-1-1.12-.14-.88.66-.11,2.65,2.38,3.11,4,3,4.31l-1.74-1.93c.35,1.42,2,3.44,3.89,5.65a64.71,64.71,0,0,1,5.56,6.83l-2.19-1.17c1.24,1.31,2.5,2.61,3.73,4,.33,1.14.1,2.17-1.37.07a11,11,0,0,0,1.66,3,6.35,6.35,0,0,1,1.32,2.74c.06.37-.07.26-.27,0,.68,1,1.35,2,2,3-.58-.5-.63,1-1.41-1.1a44.11,44.11,0,0,0,3.31,7.19c1,1.85,1.77,3.28,1.56,4.63l-.26-.48a35.43,35.43,0,0,0,1.59,3.68c.32.53.51.52.7.43.37-.16.8-.69,2.39,2.47a43.34,43.34,0,0,1-2.19,5.09l1.42.65c.13.92.19,2.75-.37,2.47,1.28,3.3.53-.65,1.6,1.24-.42,2.29-.14,5.33-.24,8a16.75,16.75,0,0,1-.4,3.45c-.29.92-.69,1.55-1.31,1.71.92,1.73,1.41-4.11,1.59.71-1.33.51-1.51,1.82-1.53,3.55-.06.85-.08,1.81-.23,2.78a7.63,7.63,0,0,1-1.1,2.81c-1-1.61.8-4.95-1.53-1.52a3.12,3.12,0,0,1,.17,2.42,8.06,8.06,0,0,1-.49,1.32c-.23.44-.5.88-.78,1.31-1.12,1.76-2.65,3.39-3.22,4.94.87.53.2,2.25-1.09,4.41s-3.27,4.69-4.76,7.12c-.18-.37-2.06,1.54-4.59,3.75a56.51,56.51,0,0,1-8,6l-.14-.39c.39,1.22-.55,2.6-2,4s-3.32,2.82-4.82,4.15c-.71-1.28-.46-2.16.88-3.9-1,.7-2,1.42-3,2.08-.27,1.13-1,2.11-2.89,3.64l-.22-2.06c-2,1.33-3.88,3-6,4.65a20.85,20.85,0,0,1-7.75,3.87c.24.91,1.94,1.51,2.9,2.36s1.19,2-1.71,4.1c-.66-.79-1.61-2.24-.15-3.36-.48.36-1.55,1.66-2.82,1.74.61-.88,1.19-1.78,1.78-2.66-3,.55-.8,1.92-3,2.74-.54-1.33-2-.25-2.16-1.44.49-.35,2.11-.26,2.7-1.13-2.51.83-5.78,1.22-7.16.54.52.69.74,1.83-1,2.69-4.64,1.79-2.21-1.08-5.21-.87-.79,1.37-4.15,1.33-3.52,3.48-1.4.43-2-.5-2.71-.91-1.07.88-3.95,1.76-6.11,2.65s-3.66,1.71-1.91,2.51l.69,0c-.11.08-.25.12-.38.21h0c-3.8,2.26-8.23,3-12.67,3.54s-8.92.7-13,2l-.15-.81c-4.8,1.88-11,2.54-14.29,4.93-1.49.25-3.77-1-3.3-2.07-3.73,1.23-4,2.26-9.81,1.67,3.64-2.06-1.54-1.13,3.8-1.67-5.12,0-6.45-1.24-11.48,1.88,1.5-2.47-4.19-2.3-6.48-1.32l3.75,1.13a35.42,35.42,0,0,1-7.42.94l.86-3.14c-5.39-1.15-9.8,1-14,2.77s-8.06,3.27-12.38.62c-2.44,2.49,5.78.82,3.68,3.63-4.79.2-10.29-3.66-11.77-3.5-6.69-1-5.48,5.25-12.42,4.86,1,1,2.19,3.9-2.78,5.55-4.8.14-6.38-4.05-3.5-5.29,1.13-.22,1.72.07,1.71.46,1.48-.58,3.44-1.29,1.42-2.29l-.48,1.19c-2.49-.88-9,0-7.67-2.07-3.46,1.46-1.32,2,1.4,2.31-6.26-1-9.5,1-15.88.53,1.06.52,2.12,1.76,1.13,1.86-9.34-.45-3.82,2.58-10,3.73-3.72-1.38.84-4.28-5.28-2.2-3.95-.8-1.11-3,.31-4-5.48,2.77-10.8-.41-14.08-.51l2.91-1.21a14.72,14.72,0,0,1-4.71,1l1.93,2.13c-1.8-.23-3.3-.11-3.35-1.06-1.68,1.67,1.75,3.68-1.68,6.06-2.46-.94-7.07,1.91-8.15-1.06,7.5.36-1.08-3,5.13-4a8.7,8.7,0,0,1-4.45.36c-.29-.31.2-.65.66-.87-7.31-2.07-3,3.73-10.31,4.29.79-1.79-2-3.08-3.13-2.61,3-.23,1.65,2.72-1,4.26-4.82-.92-5,1.41-7.53,1.46l2.87.39c-.82,1.77-3.2,1.75-6.45,2.54-.38-1.29,2.92-1.15,1.7-1.63-3.44,3.26-8.48-2.44-13.42-.06-2.43-1-.44-3.13-2.56-3.74-5.55,2.63-6.31-1.82-12.17.39,1.85,2.11,2.13,1.55-2,4l9.75-2.23L335.51,272c3-.16,6.19-1.8,8-1.56-2.9,2.06-2.63,1.45-1.08,3.23-4.29-3.1-8,2.46-12.82.49l-.16-5.5c-7.18-1.89-12.4,3.55-21.65,2.7l3,.77c-1.14,2.2-5.66.62-8.61,1.56.21-1.79-1.67-2.37-3-3.42.19,1.31-6.71.16-7.46,3.71l-4.15-2.15c-7.41-.74-8.38,5.14-15.55,4.66,2.14-1.91-1.11-3.05,3.65-4.5-2.38,0-4.52-.23-4.55,1-1.39-1-6.6,2.35-8.78.74-1,.74-1.35,2.51-4,2.37-.29-.34,0-.83,0-.83,0,.83-4.21,1.12-1.89,3A13.44,13.44,0,0,0,250.1,276a49.32,49.32,0,0,0-7.41-.29c-5,0-9.94.26-13-2.09-5.21.3-11.49.52-16.21.41.33-.46.07-.78.95-.58-6.38-1.88-4.32,4.22-11.6,2-3.57-2.78,4-1.06,1.76-2.18-.59-5.19-9,.16-13.64-3.34l1.23-.18c-3.59-2-9.41,1-15.57,0,0,0,.35-.38.13-.71-4.51,1.89-12.64,1.62-18.68,1.41,2.12-1.46,2.85-.57,2-2.49-2.7-.11.32,3-5.06,2.63-1.57-1.25-5.24-2.7-5.42-4.61l5,.69c-2.14-2.8-6.45-.93-9-1.76l.52-1a25.42,25.42,0,0,0-4.66-.11c-1.26.06-2.3.2-3.36.33a22.11,22.11,0,0,1-8.37-.49l.69.89c-2.49.73-3.36.2-4.2-.39s-1.67-1.22-4.09-.87l-.79-2.63c-3-.1-10.76-.23-16.12-1.14,3.4-.83,9.75-.24,13.77-.38-2.88-.67-9.86-2-11.65-1.36,1.22.07,2.83-.12,3.89.47a22.26,22.26,0,0,1-6.67.4,44.76,44.76,0,0,1-7.91-1.65c1.08-1.8-2.57-3.07-6.89-4.39l-1.64-.5-1.64-.58c-1.09-.39-2.15-.8-3.14-1.22a12,12,0,0,1-4.39-2.72,63,63,0,0,1-7.64-1.9c-2.48-.83-4.93-1.8-7.39-2.85-4.92-2.11-9.91-4.49-15.28-7,1.37,1.94.58,1.59-.61,1s-2.75-1.35-3-.17c-2.55-1.21-3.45-1.82-3.59-2.05-1.12-.9-2.18-1.86-3.27-2.77S36,230,35,229.07c-1.27-1.62,2.45,1.08,2.53.52-2.47-1.7-2.81-2.29-2.95-2.72s0-.77-1.44-2.12c.08.54-.49.44-1.39-.1a15.46,15.46,0,0,1-3.28-2.73c.93,1.31,2,2.52,3,3.77-.9-.55-1.65-1.06-2.28-1.53a13.2,13.2,0,0,1-1.52-1.39,12.81,12.81,0,0,1-1.83-2.42,18.09,18.09,0,0,0-1.73-2.47,18,18,0,0,0-1.32-1.55c-.53-.57-1.2-1.17-1.91-1.92.67.58,1.42,1.1,2.15,1.61a48.39,48.39,0,0,1-6.11-7.75c-.52-.83-1-1.65-1.57-2.44l-1.43-2.35a36.18,36.18,0,0,0-2.48-3.65c-.1-.79,0-1.88.82-.18a109.78,109.78,0,0,1-5-15.68,52.44,52.44,0,0,1-1.43-14.86l.42.79c-.08-1-.29-1.84-.43-2.76A9.75,9.75,0,0,1,5.93,164c.17.13.39.8.43-.11-.08-.52-.21-1.84-.26-3.35A21.77,21.77,0,0,1,6.3,156l.28,2.27c.59-5.13.87-9.09,1-12.89.12-1.89.2-3.74.35-5.66s.39-3.9.82-6c.61.14,1.45-1.76,2.34-4.16s1.9-5.28,2.64-7.17l.13.19c1.9-5.68,3.46-10.51,5.18-15.18a106.48,106.48,0,0,1,6-14.19,66.83,66.83,0,0,0,4.31-5.24c1.68-2.09,3.47-4.52,5.5-6.91A74.46,74.46,0,0,1,48.11,68.16c-1.45.88-.88-1.3.51-2.69a19.55,19.55,0,0,0,3.22-3.12c1-1,1.84-1.62,2.28-.76l-.75.53c1.37.13,3-.69,4.74-1.79s3.61-2.48,5.37-3.53l-.95-2.55a25.66,25.66,0,0,0,4.27-1.42,41.27,41.27,0,0,0,4.35-2c1.42-.78,2.91-1.51,4.34-2.34l2.14-1.25,2.14-1.19c5.6-3.22,10.9-5.93,14.47-5a23.8,23.8,0,0,1,3.66-2.2,31.67,31.67,0,0,0,3.69-2.18l.51,1.77,4.74-1.2c1.46-.34,2.83-.68,4.24-1.06s2.88-.76,4.51-1.24l5.6-1.67-1.38,1.8c4.89-1,4.66-7.08,9.26-8.31l2.12,2.68a46.63,46.63,0,0,1,6.62-1l6.68-.63a46.79,46.79,0,0,0,6.59-1,29,29,0,0,0,3.19-.94,23.07,23.07,0,0,0,3.13-1.3,1.84,1.84,0,0,1-1.58,1.8c2.08-.22,6.15-.24,9.44-.67s5.82-1.28,4.78-3.49c.24,1.5,2.52,1.28,5.34.52a84.65,84.65,0,0,0,8.54-3l-.55,2.31c3.8-3.21,3.89-4,9.55-5.2,1.38.19,1.31,1.72-.53,1.27,4.58.84,3.39-2.34,8.94-1.46l-2,1.55c4.65-.07,4.24-.85,6.74-2.63,2.91-1,8.89.27,9.61,2.28a5.8,5.8,0,0,1,5.9-2.4c.38.76-.62,1.25-1.12,1.49a22.62,22.62,0,0,0,9.4-.55c2.6-.56,4.91-1,7.58.07a1.61,1.61,0,0,0,.89,1.33c-6.19-.1-11.18-.18-10.71-.36,0,2.06,5,2.4,1,5.25,2-.78,4.7-2,7.53-2.93s5.78-1.43,8.21-.92a2.45,2.45,0,0,1,.63.71l-.51.22a6,6,0,0,0,3.09-.28,19.21,19.21,0,0,0,4,.71c.52,1.69,5.69,1,8.18,1.19-.11-2.18,3.15-1.71.16-3.62.39.17-.48.24-2.15.27a4.33,4.33,0,0,0-1.08.2l.18-.19c-1.64,0-3.79,0-6.22,0,2-1.07,4.12-1.93,6.83-.65a44.63,44.63,0,0,1,3.65-3.37c3.3,3.17,9.81,5.06,10.62,7,3.85-.44,8.36-.43,12.54-.72s8-1,10.59-2.71c2.22-.34,2.42,1.27,3.18,1.92-1.29.3-2.77.15-3.5.66,4.43-.73,12.91.47,14.17-2,5.38,1.59-3.29,2.16,4.28,2.29l-1.09.71c7.2,2.62,13.36,1.4,19.72.6s12.93-1.28,20.81,2c-1.09-.42-1.64-.62-1.83-1A129.68,129.68,0,0,0,364.78,25c4.75.62,9.58,1,14.36,1.62q3.59.43,7.17.91c2.38.33,4.74.75,7.08,1.19s4.67.9,7,1.48,4.54,1.22,6.76,1.91c5.09,1.35,5.85.49,9.17.4l.85,1.45q2.85-.18,5.7-.28c3.92.36,7,1.85,10.46,3.14,1.71.64,3.48,1.31,5.45,1.83a38.47,38.47,0,0,0,6.64,1.15l-1.08-.88c3.44.88,10.95,2.59,10.22,3a4.53,4.53,0,0,1,2.54.41v.39c2.88.49,5.71,1.19,8.56,1.83,6.43,2.11-1.37.8,8.12,3.49,1.78.45,4.34,1,6.29,1.46s3.27.74,2.63.49A16.12,16.12,0,0,1,479,48.5l3.21,1c.36-.11,1.18,0,1-.33s-1.48-1-5.23-2.79c-1.81-.63-3.64-1.25-5.47-1.81l-1.62-1c1.52.57,3,1.21,4.51,1.82a20.3,20.3,0,0,0-6.05-2.24,8.42,8.42,0,0,0-2.12-1.31c-1.85-.43-3.71-.8-5.58-1.13-.52-.63,2.61.16-.88-1.42-2.64-.45,2.14,1.71-2.11.58-2.48-1.35-1.58-1.53-4.78-2.14-.35-.45.36-.42,1.61-.11-2.84-.59-7.26-2.42-8.89-2.13-2.54-1.64-9.37-2.68-8.73-4a41.71,41.71,0,0,1-7.75-1c2.56-.27.18-1-2.63-1.86s-6.06-1.82-5.19-2.77c-1.95.44-5.13-.19-8.63-1A66.69,66.69,0,0,0,403.11,23a2.76,2.76,0,0,1,1.66,0c-3.45-1-4.33-1.94-6.5-2.89-.8,1.76-6.34,1-9.5,1.64-2-1.39-1.23-1.86-.1-2.23s2.61-.6,2.1-1.67c-.06,1.6-7.76,0-6.54,1.72-3.09-1.88-2.74-1.15-4.15-3.24-1,2.53-3.14-.21-6.15,1-4.58-2.21-.84-2.8-6.23-2.93C365.33,13,370.16,12.89,370.16,12.89ZM243.42,5.23v0L246,5.14Zm-10.68-.18c1.3.1,2.92.12,4.64.14.36.78-.05,1.55-1.12,1.51C236.84,6.19,234.33,5.72,232.74,5.06Zm22,15.82c-1.67.27-2.21-.17-2.42-.63.78,0,1.7-.07,2.91-.19.05-.08.15-.17.21-.26A2.8,2.8,0,0,1,254.74,20.87Z"/><path class="cls-1" d="M257.84,18.08a3.66,3.66,0,0,1,.69-.13,7.94,7.94,0,0,0-1-.53c-.21.23-.43.45-.62.67Z"/><path class="cls-1" d="M567.93,245.11h-.23a1.26,1.26,0,0,1,.53.18C568.07,245.23,568,245.17,567.93,245.11Z"/><polygon class="cls-1" points="86.23 27.39 86.42 27.78 87.13 27.01 86.23 27.39"/><path class="cls-1" d="M623.61,226.77a1.4,1.4,0,0,0,.91-.12A1.86,1.86,0,0,0,623.61,226.77Z"/><path class="cls-1" d="M642.19,208.39c.9-.88,1.75-1.82,2.59-2.76C643.62,206.82,642.83,207.7,642.19,208.39Z"/><path class="cls-1" d="M652.28,190.63a1.6,1.6,0,0,0-.48-.6l0,0Z"/><path class="cls-1" d="M366.61,286.57a3.24,3.24,0,0,0-.74.18C364.15,287.4,365.33,287.1,366.61,286.57Z"/><path class="cls-1" d="M457.51,271.1a18.83,18.83,0,0,1-2.78,1.62C456.38,272.72,457.65,272.61,457.51,271.1Z"/><path class="cls-1" d="M263.5,292.72s0,0,0,0l-.64,0Z"/><path class="cls-1" d="M450.48,273.2a6.84,6.84,0,0,0,4.25-.48A10.66,10.66,0,0,0,450.48,273.2Z"/><path class="cls-1" d="M628.4,111l-.61-.72s-.08,0-.15,0Z"/><path class="cls-1" d="M627.65,110.23l-.75-.74A4.12,4.12,0,0,0,627.65,110.23Z"/><path class="cls-1" d="M625.32,107.95l1.58,1.54A9.43,9.43,0,0,0,625.32,107.95Z"/><path class="cls-1" d="M643.6,132.07l.44.1A.47.47,0,0,0,643.6,132.07Z"/><path class="cls-1" d="M647.5,139.05c-.75-1.75-1.54-4.6-3.11-6.79l-.35-.09a9.61,9.61,0,0,1,1.67,3.23A13.25,13.25,0,0,0,647.5,139.05Z"/><path class="cls-1" d="M649.62,171.61a52.72,52.72,0,0,0,.34-6.31c-.41,1.15-1,2.59-1.27-.22a31.7,31.7,0,0,0-.37,3.18c0,.34.21.14.43,0s.48-.37.67,0A7.47,7.47,0,0,1,649.62,171.61Z"/><path class="cls-1" d="M644.55,190.12c1-3.14-.8-.26-1-.56a5.5,5.5,0,0,0-.16,1.83C643.46,191.53,643.84,191.17,644.55,190.12Z"/><path class="cls-1" d="M523.26,252.28V250C520.65,250.75,523.36,250.89,523.26,252.28Z"/><polygon class="cls-1" points="497.35 268.02 500.16 269.05 501.11 266.76 497.35 268.02"/><polygon class="cls-1" points="478.71 253.72 479.83 253.24 475.49 254.63 478.71 253.72"/><path class="cls-1" d="M235.4,271.3l.71,2.61C237.95,273.49,238.42,270.56,235.4,271.3Z"/><path class="cls-1" d="M130.82,262.85a6.2,6.2,0,0,0-5.68-1.74C127.44,261.67,129.59,262.87,130.82,262.85Z"/><path class="cls-1" d="M68,53.25c-.5.48-1,1-1.45,1.5,1-.81,2-1.55,3.08-2.31Z"/></g></g></svg>